<svg width="61" height="61" viewBox="0 0 61 61" fill="none" xmlns="http://www.w3.org/2000/svg">
<g clip-path="url(#clip0_378_1556)">
<path d="M30.5 61C47.3447 61 61 47.3447 61 30.5C61 13.6553 47.3447 0 30.5 0C13.6553 0 0 13.6553 0 30.5C0 47.3447 13.6553 61 30.5 61Z" fill="#101723"/>
<path d="M30.5 43.2814C26.9315 43.2814 24.1579 42.3092 22.1792 40.3648C20.2005 38.4205 19.2112 35.664 19.2112 32.0955V18.7823H26.0051V31.8897C26.0051 35.7327 27.5262 37.6542 30.5686 37.6542C33.5881 37.6542 35.0979 35.7327 35.0979 31.8897V18.7823H41.7888V32.0955C41.7888 35.664 40.7995 38.4205 38.8208 40.3648C36.8421 42.3092 34.0685 43.2814 30.5 43.2814Z" fill="white"/>
</g>
<defs>
<clipPath id="clip0_378_1556">
<rect width="61" height="61" fill="white"/>
</clipPath>
</defs>
</svg>
