<svg width="20" height="20" viewBox="0 0 20 20" fill="none" xmlns="http://www.w3.org/2000/svg">
<path opacity="0.4" d="M0.28099 17.6575C0.36966 18.5161 0.93261 19.1957 1.77688 19.3755C3.1095 19.6592 5.6216 20 10 20C14.3784 20 16.8905 19.6592 18.2232 19.3755C19.0674 19.1957 19.6303 18.5161 19.719 17.6575C19.8505 16.3844 20 14.0469 20 10C20 5.95305 19.8505 3.6156 19.719 2.34251C19.6303 1.48389 19.0674 0.80424 18.2231 0.62451C16.8905 0.34081 14.3784 0 10 0C5.6216 0 3.1095 0.34081 1.77688 0.62451C0.93261 0.80424 0.36966 1.48389 0.28099 2.34251C0.14952 3.6156 0 5.95305 0 10C0 14.0469 0.14952 16.3844 0.28099 17.6575Z" fill="#637381"/>
<path d="M11.5878 5H5.07882C4.48299 5 4 5.50156 4 6.12031V12.8797C4 13.4984 4.48299 14 5.07882 14H11.5878C12.1837 14 12.6667 13.4984 12.6667 12.8797V6.12031C12.6667 5.50156 12.1837 5 11.5878 5ZM15.8625 5.88359L13.3889 7.65547V11.3445L15.8625 13.1141C16.341 13.4563 17 13.107 17 12.5094V6.48828C17 5.89297 16.3432 5.54141 15.8625 5.88359Z" fill="#637381"/>
</svg>
