<svg width="20" height="20" viewBox="0 0 20 20" fill="none" xmlns="http://www.w3.org/2000/svg">
<path d="M12.9373 5.43749C12.9373 4.09129 11.8461 3 10.4999 3C9.15369 3 8.06242 4.09129 8.06242 5.43749C8.06242 6.7837 9.15369 7.87499 10.4999 7.87499C11.8461 7.87499 12.9373 6.7837 12.9373 5.43749ZM9.93088 9.12166C8.42448 8.19948 5.98449 7.94608 4.75663 7.87626C4.34404 7.8529 4 8.16723 4 8.56409V14.2211C4 14.585 4.29427 14.8884 4.67258 14.9079C5.78112 14.9661 8.02383 15.1791 9.5739 15.9598C9.8118 16.0797 10.0939 15.9164 10.0939 15.6585V9.41264C10.0936 9.29407 10.035 9.18539 9.93088 9.12166ZM16.2431 7.87626C15.0155 7.94583 12.5753 8.19948 11.0691 9.12166C10.965 9.18539 10.9064 9.29838 10.9064 9.41696V15.6577C10.9064 15.9164 11.1892 16.0799 11.4279 15.9598C12.9777 15.1799 15.2191 14.9668 16.3274 14.9087C16.7057 14.8889 17 14.5855 17 14.2216V8.56409C16.9997 8.16723 16.6557 7.8529 16.2431 7.87626Z" fill="#637381"/>
<path opacity="0.4" d="M0.28099 17.6575C0.36966 18.5161 0.93261 19.1957 1.77688 19.3755C3.1095 19.6592 5.6216 20 10 20C14.3784 20 16.8905 19.6592 18.2232 19.3755C19.0674 19.1957 19.6303 18.5161 19.719 17.6575C19.8505 16.3844 20 14.0469 20 10C20 5.95305 19.8505 3.6156 19.719 2.34251C19.6303 1.48389 19.0674 0.80424 18.2231 0.62451C16.8905 0.34081 14.3784 0 10 0C5.6216 0 3.1095 0.34081 1.77688 0.62451C0.93261 0.80424 0.36966 1.48389 0.28099 2.34251C0.14952 3.6156 0 5.95305 0 10C0 14.0469 0.14952 16.3844 0.28099 17.6575Z" fill="#637381"/>
</svg>
